<?xml version="1.0" standalone="no"?>
<!DOCTYPE svg PUBLIC "-//W3C//DTD SVG 20010904//EN"
 "http://www.w3.org/TR/2001/REC-SVG-20010904/DTD/svg10.dtd">
<svg version="1.0" xmlns="http://www.w3.org/2000/svg"
 width="1050.000000pt" height="200.000000pt" viewBox="0 0 1050.000000 200.000000"
 preserveAspectRatio="xMidYMid meet">
<metadata>
Created by potrace 1.15, written by Peter Selinger 2001-2017
</metadata>
<g transform="translate(0.000000,200.000000) scale(0.100000,-0.100000)"
fill="#000000" stroke="none">
<path d="M4340 1872 c0 -73 13 -90 70 -95 42 -3 41 -4 -12 -5 l-58 -2 0 -36 0
-37 76 6 c107 8 114 16 114 134 l0 94 -36 -3 c-34 -3 -37 -6 -41 -37 -2 -19
-6 -37 -9 -40 -10 -10 -39 16 -43 40 -3 27 -17 39 -43 39 -15 0 -18 -9 -18
-58z"/>
<path d="M5293 1910 c-35 -14 -46 -47 -40 -118 3 -35 9 -68 14 -73 5 -5 44
-12 86 -15 l77 -7 0 57 0 56 -45 0 c-42 0 -45 -2 -45 -26 0 -40 -25 -23 -28
19 -3 32 0 37 23 43 14 3 42 4 61 1 34 -6 34 -6 34 34 l0 39 -57 -1 c-32 0
-68 -4 -80 -9z"/>
<path d="M5790 1864 c0 -45 -17 -68 -47 -62 -15 3 -17 12 -15 51 l3 47 -34 0
c-33 0 -35 -2 -40 -45 -7 -47 3 -88 25 -101 7 -5 31 -11 53 -15 l40 -6 -37 -2
c-34 -1 -38 -4 -38 -26 0 -26 1 -26 72 -23 70 3 72 4 80 33 4 17 5 64 2 107
-7 74 -7 76 -35 80 -28 4 -29 3 -29 -38z"/>
<path d="M4553 1878 c-18 -23 -15 -104 4 -123 14 -15 29 -17 97 -11 45 4 84
12 88 19 12 19 9 102 -4 115 -17 17 -172 16 -185 0z"/>
<path d="M4970 1859 c0 -19 3 -58 6 -86 6 -50 8 -53 35 -53 28 0 29 2 29 49 0
37 4 50 17 56 10 3 19 1 21 -4 2 -6 17 -11 33 -11 28 0 30 2 27 33 -3 31 -5
32 -53 35 -27 1 -65 5 -82 8 -32 6 -33 5 -33 -27z"/>
<path d="M4764 1835 c-8 -59 1 -94 30 -104 12 -5 55 -9 94 -9 l72 0 0 41 c0
23 -3 59 -6 80 -6 33 -10 37 -35 37 -27 0 -29 -3 -29 -40 0 -38 -2 -40 -30
-40 -28 0 -30 2 -30 40 0 38 -2 40 -29 40 -28 0 -30 -3 -37 -45z"/>
<path d="M5450 1818 c0 -89 4 -92 104 -95 l86 -2 0 80 0 79 -35 0 c-34 0 -35
-1 -35 -40 0 -36 -2 -40 -25 -40 -22 0 -25 4 -25 40 0 39 -1 40 -35 40 l-35 0
0 -62z"/>
<path d="M7711 1549 c-66 -14 -93 -83 -62 -154 23 -51 45 -65 103 -65 47 0 65
10 92 50 30 46 11 138 -33 156 -40 16 -69 20 -100 13z"/>
<path d="M4780 1518 c-85 -7 -109 -13 -127 -30 -13 -12 -23 -26 -23 -31 0 -9
-16 -28 -114 -132 l-48 -50 5 118 5 117 -136 0 c-75 0 -154 3 -174 6 l-37 6 5
-88 c12 -204 37 -493 60 -701 l5 -43 105 0 104 0 0 48 c0 27 3 84 7 127 6 77
6 77 57 126 53 51 66 58 66 36 0 -7 8 -22 18 -33 29 -33 72 -92 72 -101 0 -4
19 -33 42 -63 23 -30 47 -64 53 -75 36 -67 61 -95 85 -95 26 1 189 35 196 42
6 7 -29 70 -71 125 -22 29 -58 76 -80 105 -22 29 -46 64 -53 78 -7 14 -21 34
-31 45 -19 21 -91 132 -91 140 0 2 49 55 110 117 l109 113 1 53 c0 28 -3 51
-7 51 -5 -1 -55 -6 -113 -11z"/>
<path d="M2580 1509 c-102 -3 -204 -7 -227 -8 l-43 -1 0 -67 c0 -38 3 -85 6
-105 6 -35 9 -38 38 -38 59 0 63 -10 75 -185 16 -238 18 -225 -25 -225 -29 0
-35 -3 -30 -16 3 -9 6 -58 6 -110 l0 -94 206 0 207 0 -7 31 c-3 17 -6 76 -6
130 l0 99 -55 0 -55 0 0 160 0 160 60 0 c41 0 60 4 61 13 11 276 11 267 -8
265 -10 -1 -101 -5 -203 -9z"/>
<path d="M3250 1460 c-47 -10 -121 -53 -136 -82 -13 -22 -13 -21 -14 15 l0 37
-116 0 -116 0 5 -27 c3 -16 15 -127 28 -248 12 -121 25 -229 29 -240 7 -18 15
-20 94 -17 l86 3 0 169 c0 192 -8 178 101 187 64 5 68 5 84 -21 15 -23 17 -47
13 -186 l-4 -160 97 0 c128 0 158 6 165 36 3 13 2 108 -3 211 -11 245 -25 274
-143 310 -49 15 -128 21 -170 13z"/>
<path d="M5088 1428 l-98 -10 0 -57 c0 -31 -3 -72 -6 -91 l-6 -35 229 3 c125
2 246 0 268 -5 37 -8 40 -11 43 -46 l3 -37 -173 -1 c-202 0 -250 -5 -298 -27
-44 -21 -59 -70 -57 -177 2 -75 3 -77 39 -111 l38 -34 231 0 c199 0 466 14
478 26 2 2 6 107 9 233 l5 230 -54 55 c-45 46 -64 58 -114 72 -75 19 -398 27
-537 12z m442 -417 c0 -70 3 -69 -146 -78 -127 -7 -149 -2 -163 38 -17 50 -14
79 12 89 12 5 84 9 160 9 l137 1 0 -59z"/>
<path d="M6853 1427 l-103 -9 0 -63 c0 -34 -3 -76 -6 -92 l-6 -29 221 4 c301
6 339 -1 326 -57 l-7 -31 -181 0 c-185 0 -285 -13 -313 -42 -9 -8 -16 -49 -20
-113 -5 -85 -3 -105 13 -135 32 -61 35 -62 373 -55 168 3 324 8 346 11 l41 6
7 61 c11 111 19 343 12 379 -7 40 -79 120 -129 142 -73 34 -349 45 -574 23z
m447 -415 c0 -70 5 -68 -156 -78 -132 -9 -150 -4 -163 44 -24 85 -16 90 169
91 l150 2 0 -59z"/>
<path d="M5915 1368 c-24 -70 -33 -442 -12 -512 11 -36 19 -42 69 -63 64 -25
159 -43 234 -43 61 0 171 32 206 60 30 23 38 18 38 -26 0 -18 5 -36 11 -40 6
-3 53 -3 105 1 l94 7 0 106 c0 100 -35 510 -44 519 -2 2 -53 1 -112 -3 l-109
-7 3 -153 3 -154 -37 -16 c-20 -8 -77 -18 -125 -21 l-88 -6 -11 27 c-6 16 -13
95 -17 176 l-6 148 -30 6 c-55 11 -167 7 -172 -6z"/>
<path d="M7757 1250 c-48 -4 -90 -9 -93 -13 -3 -3 -2 -118 2 -257 l7 -252 81
7 c45 4 86 11 92 16 19 16 63 346 64 482 0 31 7 30 -153 17z"/>
</g>
</svg>
